<svg version="1.1" id="Layer_1" xmlns="http://www.w3.org/2000/svg" xmlns:xlink="http://www.w3.org/1999/xlink" x="0px" y="0px"
	 width="100%" viewBox="0 0 640 512" enable-background="new 0 0 640 512" xml:space="preserve">
<path fill="#F7F6F6" opacity="1.000000" stroke="none" 
	d="
M384.000000,513.000000 
	C256.000000,513.000000 128.500000,513.000000 1.000000,513.000000 
	C1.000000,342.333344 1.000000,171.666672 1.000000,1.000000 
	C214.333328,1.000000 427.666656,1.000000 641.000000,1.000000 
	C641.000000,171.666672 641.000000,342.333344 641.000000,513.000000 
	C555.500000,513.000000 470.000000,513.000000 384.000000,513.000000 
M465.025482,171.040436 
	C465.025482,171.040436 465.075562,171.108841 465.569336,170.745987 
	C465.757263,170.175766 465.945190,169.605530 466.052948,169.046143 
	C466.052948,169.046143 466.082001,169.121643 466.626221,168.790512 
	C467.103058,167.866776 467.579926,166.943054 467.995392,166.014938 
	C467.995392,166.014938 468.030243,166.065704 468.565460,165.654755 
	C468.797760,164.801270 469.030060,163.947800 469.132843,163.093536 
	C469.132843,163.093536 469.175629,163.215790 469.790710,162.973495 
	C470.237366,162.004044 470.684021,161.034592 471.045227,160.045044 
	C471.045227,160.045044 471.077972,160.126526 471.714844,159.841141 
	C472.872314,157.994507 474.029755,156.147873 475.656921,153.551865 
	C459.796600,153.551865 445.045441,153.463211 430.298401,153.669067 
	C428.542755,153.693588 426.809570,155.324936 424.556580,156.255478 
	C424.156952,156.552826 423.757355,156.850174 423.179260,157.073578 
	C423.179260,157.073578 423.098785,157.249191 422.404480,157.297562 
	C412.415588,163.116394 402.426727,168.935211 392.157410,174.741043 
	C392.157410,174.741043 391.989655,174.966141 391.265656,174.995148 
	C381.756317,180.348480 372.247009,185.701813 362.318695,191.291016 
	C363.560638,192.153259 364.193268,192.670853 364.894287,193.067688 
	C381.943176,202.719376 399.306915,211.862930 415.936005,222.189697 
	C425.533112,228.149612 435.147278,230.830643 446.327789,230.036255 
	C455.857361,229.359177 465.473206,229.896317 475.621552,229.896317 
	C474.973541,228.327347 474.707794,227.393539 474.234070,226.580994 
	C468.132904,216.115921 462.110229,205.602203 455.803589,195.261871 
	C454.203461,192.638306 453.937439,190.632812 455.572296,188.015610 
	C457.580536,184.800720 459.210327,181.349472 461.327606,177.701706 
	C461.327606,177.701706 461.382690,177.264572 461.268799,177.189484 
	C461.268799,177.189484 461.307037,177.320419 461.893097,177.009186 
	C462.728973,175.422607 463.564850,173.836029 464.251984,172.194412 
	C464.251984,172.194412 464.281281,172.350296 464.784515,172.092865 
	C464.893036,171.743729 465.001587,171.394592 465.025482,171.040436 
M227.690643,224.102448 
	C228.165970,223.762634 228.641312,223.422836 229.030121,223.033005 
	C229.030121,223.033005 229.070663,223.124374 229.755402,223.072723 
	C230.571579,222.407455 231.387756,221.742188 232.585800,221.060730 
	C232.585800,221.060730 232.953339,220.955933 233.675323,221.119720 
	C236.252747,219.607681 238.830170,218.095627 241.438721,216.498795 
	C241.438721,216.498795 241.528870,216.504517 242.181870,216.275894 
	C249.174103,212.230042 256.166321,208.184174 263.075684,204.100021 
	C263.075684,204.100021 263.077118,204.191284 263.701019,204.179169 
	C264.164185,203.806274 264.627350,203.433395 265.056427,203.006454 
	C265.056427,203.006454 265.013062,203.053360 265.729492,202.982361 
	C270.617188,200.152603 275.504852,197.322830 280.097748,194.464478 
	C280.097748,194.464478 280.396027,194.514084 281.045654,194.338348 
	C282.580109,193.454376 284.114594,192.570419 286.186890,191.376633 
	C281.460693,188.816559 277.195892,186.506393 272.837982,184.000137 
	C272.837982,184.000137 272.647217,184.103592 272.226654,183.621124 
	C267.925262,181.261292 263.623901,178.901459 259.198639,176.753860 
	C259.198639,176.753860 259.379608,176.587616 258.996429,176.057541 
	C256.998840,175.028595 255.001236,173.999649 253.003616,173.008377 
	C253.003616,173.008377 253.036758,172.990372 252.660553,172.426620 
	C246.779984,169.270752 240.899429,166.114899 235.009903,163.006714 
	C235.009903,163.006714 235.046829,162.975082 234.647217,162.426117 
	C232.209167,161.124603 229.771103,159.823090 227.249969,158.784851 
	C227.249969,158.784851 227.395447,158.550217 227.077896,158.044876 
	C226.360138,157.762924 225.642380,157.480972 224.813644,156.989288 
	C224.813644,156.989288 224.607071,157.106049 224.652100,156.907471 
	C224.652100,156.907471 224.407028,156.825684 224.407028,156.825684 
	C224.407028,156.825684 224.318741,157.071442 223.767990,156.913101 
	C223.576981,156.913528 223.385971,156.913956 222.998749,156.220383 
	C220.634598,155.330460 218.294846,153.758698 215.901901,153.673004 
	C207.253906,153.363266 198.587997,153.553558 189.928864,153.554489 
	C184.492264,153.555069 179.055664,153.554581 172.741562,153.554581 
	C174.539398,156.489319 175.810867,158.564804 176.993729,160.829224 
	C176.993729,160.829224 177.171799,160.938034 177.322968,161.613129 
	C179.523270,165.103027 181.723572,168.592926 184.002533,172.008911 
	C184.002533,172.008911 183.913315,172.068665 184.030685,172.767105 
	C185.611557,175.320557 187.192444,177.874023 188.774490,180.769180 
	C188.774490,180.769180 189.018143,181.008728 189.065430,181.719849 
	C191.646133,186.505905 196.716385,190.821518 191.731308,197.171082 
	C191.731308,197.171082 191.748962,197.452576 191.179993,197.857529 
	C185.034134,208.309708 178.888290,218.761902 172.346848,229.886887 
	C187.371490,229.886887 201.168152,230.197586 214.932632,229.669662 
	C218.397247,229.536789 221.758865,226.718155 225.078964,225.098999 
	C225.078964,225.098999 225.096237,225.192856 225.740662,225.156326 
	C226.200378,224.799667 226.660110,224.443024 227.041016,224.055008 
	C227.041016,224.055008 227.050034,224.139374 227.690643,224.102448 
M453.192688,390.160004 
	C451.624695,390.160004 450.056671,390.160004 448.499939,390.160004 
	C448.499939,410.464874 448.499939,429.988861 448.499939,449.625916 
	C460.067017,449.625916 471.272614,449.625916 482.676880,449.625916 
	C482.676880,447.534882 482.676880,445.783142 482.676880,443.577911 
	C474.981415,443.577911 467.530487,443.716339 460.092896,443.463318 
	C458.571533,443.411560 457.100067,441.891815 455.753693,440.114868 
	C455.765533,424.959473 455.824432,409.803741 455.713043,394.649231 
	C455.702454,393.208740 454.625885,391.776031 453.192688,390.160004 
M507.454224,396.469727 
	C512.899292,396.469727 518.344360,396.469727 524.040466,396.469727 
	C524.040466,394.041901 524.040466,392.170654 524.040466,390.356323 
	C509.806671,390.356323 495.925934,390.356323 481.683014,390.356323 
	C481.803986,392.426025 481.906433,394.178955 482.046112,396.568787 
	C487.849701,396.568787 493.369995,396.568787 499.503357,396.568787 
	C499.503357,414.706848 499.503357,432.197876 499.503357,450.018433 
	C501.781982,449.899628 503.416412,449.814392 505.827789,449.707855 
	C506.119659,448.830109 506.665558,447.952423 506.665771,447.074585 
	C506.669708,430.368103 506.609344,413.661652 507.454224,396.469727 
M285.979431,390.736603 
	C285.776520,391.179871 285.397980,391.622345 285.395966,392.066528 
	C285.312408,410.522430 285.241577,428.978607 285.283020,447.434448 
	C285.284729,448.196838 286.378723,448.956818 287.819275,449.905121 
	C289.384369,449.905121 290.949463,449.905121 293.030334,449.905121 
	C293.030334,440.637634 293.030334,432.100647 293.030334,423.579407 
	C303.572205,423.579407 313.582550,423.579407 324.110626,423.579407 
	C324.110626,432.513916 324.110626,441.061066 324.110626,449.743958 
	C326.102875,449.743958 327.568085,449.743958 329.833344,449.747589 
	C330.171295,448.731964 330.801422,447.716980 330.803650,446.700623 
	C330.842316,429.133698 330.836853,411.566345 330.709137,394.000061 
	C330.700439,392.797913 329.649811,391.603302 328.353638,390.160156 
	C326.957520,390.251007 325.561432,390.341888 323.696533,390.463257 
	C323.696533,399.487762 323.696533,408.030029 323.696533,416.536133 
	C313.159576,416.536133 303.138489,416.536133 292.697723,416.536133 
	C292.697723,407.617737 292.697723,399.049103 292.697723,390.083130 
	C290.472504,390.195129 288.691620,390.284729 285.979431,390.736603 
M579.824158,449.710083 
	C580.133789,449.187775 580.713013,448.666138 580.714294,448.143127 
	C580.757690,429.649628 580.767029,411.155884 580.671692,392.662720 
	C580.667786,391.908630 579.606812,391.159973 578.197937,390.182404 
	C576.625427,390.182404 575.052917,390.182404 572.891113,390.182404 
	C572.891113,399.487518 572.891113,408.048706 572.891113,416.509460 
	C562.390320,416.509460 552.491638,416.509460 541.995605,416.509460 
	C541.995605,407.554260 541.995605,398.985535 541.995605,390.416962 
	C539.300659,390.416962 537.219299,390.416962 534.911194,390.416962 
	C534.911194,410.310364 534.911194,429.900604 534.911194,449.525757 
	C537.426086,449.525757 539.635986,449.525757 542.472778,449.525757 
	C542.472778,440.537170 542.472778,431.974976 542.472778,423.649048 
	C553.007141,423.649048 562.901672,423.649048 573.235474,423.649048 
	C573.235474,432.552826 573.235474,440.998413 573.235474,449.701630 
	C575.465332,449.701630 577.248657,449.701630 579.824158,449.710083 
M292.997070,219.484940 
	C275.745270,224.290405 258.610809,229.589157 241.201187,233.731110 
	C229.228592,236.579529 218.923096,241.046692 210.818344,250.814453 
	C204.833435,258.027405 197.507050,264.127258 190.012955,271.473267 
	C201.609848,274.574005 211.828262,278.090698 222.340714,279.873047 
	C231.025208,281.345459 234.346054,285.745880 235.891571,293.893982 
	C237.856659,304.254120 241.136459,314.364899 244.077667,325.442902 
	C254.979584,314.443329 265.301849,304.085846 275.519348,293.626038 
	C276.481140,292.641449 276.965637,291.064789 277.363373,289.674774 
	C280.738892,277.878784 284.055908,266.065979 287.364563,254.250946 
	C290.608734,242.666107 293.822571,231.072784 297.194489,218.963303 
	C295.670593,219.086823 294.728668,219.163177 292.997070,219.484940 
M361.256317,127.718857 
	C357.981689,139.721939 354.707062,151.725006 351.389343,163.885910 
	C352.651978,163.885910 353.179535,163.996811 353.641876,163.869965 
	C374.136230,158.246918 394.664581,152.740875 415.085541,146.861877 
	C420.028839,145.438751 425.283966,144.869232 429.294250,140.380493 
	C436.270203,132.572250 444.040161,125.474449 451.454407,118.055962 
	C453.507111,116.002045 455.479095,113.867455 457.992371,111.243401 
	C444.598572,107.710716 432.054657,104.523598 419.610718,100.984863 
	C417.811493,100.473213 415.660339,98.543358 415.097260,96.807472 
	C412.847137,89.870430 411.162659,82.750076 409.262970,75.699142 
	C407.701111,69.902153 406.130920,64.107422 404.319855,57.406734 
	C394.198578,67.585777 384.730133,76.924919 375.519043,86.511314 
	C373.429962,88.685532 371.611664,91.527611 370.737366,94.388824 
	C367.441467,105.174858 364.586365,116.095581 361.256317,127.718857 
M262.547607,75.952515 
	C256.730896,69.844627 250.914200,63.736744 244.225174,56.712864 
	C240.854431,69.586494 237.771393,80.765007 235.044754,92.029793 
	C233.707443,97.554688 231.959305,101.819122 225.121613,102.127167 
	C221.401047,102.294792 217.753738,104.007996 214.065765,104.995613 
	C206.426025,107.041489 198.781189,109.068352 190.275375,111.332794 
	C201.409424,122.437881 211.838608,132.904053 222.384216,143.251556 
	C223.358261,144.207306 225.035736,144.542480 226.450211,144.938522 
	C246.921036,150.670013 267.398712,156.377106 287.886414,162.048050 
	C290.783691,162.849991 293.742279,163.430435 297.270355,164.252762 
	C291.747681,144.392441 285.774872,125.692352 281.515015,106.609879 
	C278.711731,94.052361 272.634796,84.404510 262.547607,75.952515 
M309.950226,254.406342 
	C302.650238,267.420410 295.290222,280.401550 288.115662,293.484436 
	C287.052643,295.422821 286.381073,297.835205 286.352722,300.038879 
	C286.190033,312.685181 286.264526,325.334747 286.294434,337.983124 
	C286.297607,339.333252 286.532898,340.682861 286.710907,342.565735 
	C298.456543,335.706573 309.538757,329.358673 320.470459,322.761383 
	C323.106354,321.170593 325.126678,320.963806 327.730103,322.673737 
	C331.612946,325.223969 335.713623,327.444946 339.742096,329.770538 
	C346.971069,333.943665 354.215240,338.090485 362.114471,342.628235 
	C362.114471,327.117188 362.165131,312.649109 362.040344,298.182526 
	C362.027100,296.642853 361.179596,295.004852 360.393677,293.593719 
	C352.730255,279.834106 345.010468,266.105713 337.279236,252.383957 
	C333.150787,245.056610 328.968506,237.759567 324.309845,229.568481 
	C319.320984,238.115067 314.767365,245.916077 309.950226,254.406342 
M310.985504,54.489651 
	C303.003174,49.894554 295.020844,45.299458 286.259338,40.255829 
	C286.259338,55.951256 286.216156,70.555901 286.329559,85.159325 
	C286.340302,86.542992 287.176422,88.007164 287.894287,89.285149 
	C296.197540,104.067131 304.542786,118.825546 312.896912,133.578888 
	C316.463470,139.877380 320.076782,146.149384 323.947327,152.920532 
	C325.160889,151.433777 326.004791,150.654739 326.542969,149.702835 
	C336.443451,132.191360 346.332214,114.673164 356.159058,97.120323 
	C358.262390,93.363266 361.631256,89.534241 361.810272,85.619194 
	C362.483856,70.886536 362.080414,56.104630 362.080414,40.826378 
	C360.467682,41.456398 359.358582,41.735531 358.406494,42.286179 
	C351.208313,46.449261 343.988586,50.579166 336.875397,54.884312 
	C324.121307,62.603508 324.150482,62.651733 310.985504,54.489651 
M413.062073,292.571869 
	C413.600555,285.125885 417.318817,281.629517 424.986938,280.240753 
	C435.833984,278.276337 446.387726,274.692535 457.790497,271.604950 
	C456.224518,269.874237 455.198242,268.639343 454.068604,267.507599 
	C445.477386,258.900421 436.930786,250.246552 428.204956,241.777573 
	C426.503571,240.126297 424.230682,238.696457 421.968201,238.048615 
	C402.996887,232.616318 383.969971,227.377838 364.951294,222.111771 
	C360.541901,220.890854 356.099823,219.787933 351.123108,218.487045 
	C357.648560,241.958786 363.765869,264.526794 370.315826,286.968536 
	C371.411377,290.722137 373.874420,294.406281 376.585938,297.296661 
	C384.674927,305.919220 393.192505,314.140320 401.573303,322.487518 
	C402.322968,323.234131 403.294830,323.757660 404.588776,324.691864 
	C407.458771,313.891998 410.184357,303.635620 413.062073,292.571869 
M199.960999,390.118652 
	C198.517075,391.117523 196.378357,391.800964 195.755524,393.172668 
	C193.629959,397.853973 192.052032,402.782776 190.238571,407.607178 
	C188.026657,413.491577 185.787903,419.365875 183.054688,426.580383 
	C178.556183,414.632660 174.704407,404.204437 170.648026,393.856415 
	C170.081390,392.410919 168.581833,390.382599 167.390259,390.294250 
	C162.132309,389.904358 156.829025,390.125763 151.404907,390.125763 
	C151.404907,410.334808 151.404907,430.009491 151.404907,449.672363 
	C155.599686,449.672363 159.368347,449.672363 163.831558,449.672363 
	C163.831558,437.144318 163.831558,424.865479 163.831558,412.586639 
	C165.486374,413.927887 166.295486,415.335419 166.886536,416.829254 
	C170.738007,426.563660 174.459946,436.350677 178.446228,446.029053 
	C179.079208,447.565826 180.832306,448.641296 182.067520,449.930054 
	C183.400085,448.571625 185.214569,447.437988 185.973022,445.811798 
	C188.078552,441.297241 189.733597,436.573334 191.587097,431.940308 
	C194.316559,425.117737 197.063751,418.302216 199.803375,411.483704 
	C200.234512,411.570282 200.665665,411.656891 201.096817,411.743500 
	C201.096817,424.397491 201.096817,437.051514 201.096817,449.699463 
	C205.861267,449.699463 209.968262,449.699463 214.252426,449.699463 
	C214.252426,429.772583 214.252426,410.098022 214.252426,390.104492 
	C209.499908,390.104492 205.179321,390.104492 199.960999,390.118652 
M251.084869,389.546692 
	C247.119019,389.768829 243.053528,389.512421 239.208176,390.313202 
	C231.303192,391.959351 226.150101,398.231110 225.875305,405.668213 
	C225.489761,416.102020 228.074402,420.225220 237.627472,423.154999 
	C242.206253,424.559296 247.067398,425.015137 251.730865,426.179962 
	C255.234238,427.055084 258.606049,428.548431 258.257965,433.058197 
	C257.955048,436.983063 255.561050,439.267273 251.758331,440.243164 
	C244.139053,442.198486 239.747253,439.673553 236.576492,431.338257 
	C232.494644,431.338257 228.387726,431.338257 224.290146,431.338257 
	C224.157394,437.452362 226.407776,442.854492 230.845154,445.806183 
	C240.304962,452.098816 250.447784,452.710388 260.717316,448.153687 
	C268.103668,444.876282 272.319977,437.350952 271.562622,430.060455 
	C270.684814,421.610870 267.212555,417.586060 257.963928,415.062805 
	C252.859283,413.670105 247.497620,413.175232 242.451904,411.624603 
	C238.252350,410.334045 237.198334,404.966034 240.063797,401.888489 
	C244.098709,397.554901 253.228928,398.775848 256.113983,403.963745 
	C256.765045,405.134460 257.727814,406.894409 258.689850,406.993225 
	C262.234528,407.357361 265.839172,407.137848 269.471039,407.137848 
	C268.461884,396.157471 263.402191,391.262939 251.084869,389.546692 
M67.813675,432.498749 
	C67.813675,438.235474 67.813675,443.972198 67.813675,449.569397 
	C72.775078,449.569397 76.855476,449.569397 81.512527,449.569397 
	C81.512527,441.184906 81.512527,433.172058 81.512527,424.071472 
	C82.977722,425.628387 83.677338,426.257324 84.242363,426.990051 
	C89.317574,433.572113 94.328941,440.203949 99.462952,446.739594 
	C100.439583,447.982849 101.807701,449.664459 103.108635,449.772034 
	C107.630470,450.145966 112.202217,449.916473 117.925194,449.916473 
	C109.180710,438.754211 101.243988,428.623077 93.211456,418.369629 
	C100.991089,408.957092 108.513840,399.855347 115.946335,390.862823 
	C105.588219,387.635620 98.789413,391.545258 93.942467,399.989075 
	C92.880333,401.839386 91.286491,403.388763 89.908073,405.052338 
	C87.362808,408.124207 84.795715,411.177979 82.237717,414.239288 
	C81.878723,414.058655 81.519722,413.877991 81.160728,413.697357 
	C81.160728,405.946777 81.160728,398.196167 81.160728,390.592346 
	C76.470757,390.592346 72.264610,390.592346 67.813354,390.592346 
	C67.813354,404.541168 67.813354,418.020264 67.813675,432.498749 
M394.276642,433.651489 
	C392.502869,438.890778 390.729095,444.130096 388.981140,449.293030 
	C395.413544,451.670959 396.760468,447.896088 398.058441,443.581360 
	C401.387604,432.514557 401.464935,432.537842 412.981720,432.537048 
	C426.059753,432.536163 426.375305,432.443329 430.010345,444.801849 
	C431.548218,450.030365 434.134766,450.827515 438.575256,449.464203 
	C438.637329,449.048523 438.807526,448.686981 438.715607,448.413666 
	C432.571259,430.147491 426.303528,411.921814 420.326874,393.601166 
	C419.102997,389.849487 416.653534,390.186981 413.794769,390.047668 
	C410.800171,389.901825 408.865479,390.503845 407.806824,393.726715 
	C403.504456,406.824646 398.976410,419.848511 394.276642,433.651489 
M364.495422,390.110016 
	C358.376129,390.110016 352.256836,390.110016 345.981262,390.110016 
	C345.981262,410.301178 345.981262,429.982635 345.981262,449.654053 
	C358.306244,449.654053 370.224548,449.654053 382.394867,449.654053 
	C382.394867,447.613342 382.394867,445.869965 382.394867,443.604706 
	C372.572784,443.604706 362.988007,443.604706 353.306610,443.604706 
	C353.306610,436.331482 353.306610,429.584198 353.306610,422.294495 
	C360.707642,422.294495 367.782013,422.294495 375.236023,422.294495 
	C375.117706,420.004456 375.029144,418.290710 374.910919,416.003052 
	C367.376221,416.003052 360.321533,416.003052 353.272247,416.003052 
	C353.272247,409.147095 353.272247,402.898346 353.272247,396.021088 
	C362.428741,396.021088 371.304749,396.021088 380.526886,396.021088 
	C380.410950,393.782410 380.328735,392.195312 380.220734,390.110168 
	C375.064728,390.110168 370.278442,390.110168 364.495422,390.110016 
M139.708786,433.497375 
	C139.708786,419.253296 139.708786,405.009216 139.708786,390.523956 
	C134.799103,390.523956 130.459656,390.523956 126.150841,390.523956 
	C126.150841,410.459290 126.150841,429.979706 126.150841,449.631348 
	C130.729813,449.631348 134.951431,449.631348 139.709167,449.631348 
	C139.709167,444.385803 139.709167,439.440552 139.708786,433.497375 
z"/>
<path fill="#B4202E" opacity="1.000000" stroke="none" 
	d="
M293.391907,219.362228 
	C294.728668,219.163177 295.670593,219.086823 297.194489,218.963303 
	C293.822571,231.072784 290.608734,242.666107 287.364563,254.250946 
	C284.055908,266.065979 280.738892,277.878784 277.363373,289.674774 
	C276.965637,291.064789 276.481140,292.641449 275.519348,293.626038 
	C265.301849,304.085846 254.979584,314.443329 244.077667,325.442902 
	C241.136459,314.364899 237.856659,304.254120 235.891571,293.893982 
	C234.346054,285.745880 231.025208,281.345459 222.340714,279.873047 
	C211.828262,278.090698 201.609848,274.574005 190.012955,271.473267 
	C197.507050,264.127258 204.833435,258.027405 210.818344,250.814453 
	C218.923096,241.046692 229.228592,236.579529 241.201187,233.731110 
	C258.610809,229.589157 275.745270,224.290405 293.391907,219.362228 
z"/>
<path fill="#B4202E" opacity="1.000000" stroke="none" 
	d="
M361.411285,127.342361 
	C364.586365,116.095581 367.441467,105.174858 370.737366,94.388824 
	C371.611664,91.527611 373.429962,88.685532 375.519043,86.511314 
	C384.730133,76.924919 394.198578,67.585777 404.319855,57.406734 
	C406.130920,64.107422 407.701111,69.902153 409.262970,75.699142 
	C411.162659,82.750076 412.847137,89.870430 415.097260,96.807472 
	C415.660339,98.543358 417.811493,100.473213 419.610718,100.984863 
	C432.054657,104.523598 444.598572,107.710716 457.992371,111.243401 
	C455.479095,113.867455 453.507111,116.002045 451.454407,118.055962 
	C444.040161,125.474449 436.270203,132.572250 429.294250,140.380493 
	C425.283966,144.869232 420.028839,145.438751 415.085541,146.861877 
	C394.664581,152.740875 374.136230,158.246918 353.641876,163.869965 
	C353.179535,163.996811 352.651978,163.885910 351.389343,163.885910 
	C354.707062,151.725006 357.981689,139.721939 361.411285,127.342361 
z"/>
<path fill="#B41F2D" opacity="1.000000" stroke="none" 
	d="
M262.797882,76.202385 
	C272.634796,84.404510 278.711731,94.052361 281.515015,106.609879 
	C285.774872,125.692352 291.747681,144.392441 297.270355,164.252762 
	C293.742279,163.430435 290.783691,162.849991 287.886414,162.048050 
	C267.398712,156.377106 246.921036,150.670013 226.450211,144.938522 
	C225.035736,144.542480 223.358261,144.207306 222.384216,143.251556 
	C211.838608,132.904053 201.409424,122.437881 190.275375,111.332794 
	C198.781189,109.068352 206.426025,107.041489 214.065765,104.995613 
	C217.753738,104.007996 221.401047,102.294792 225.121613,102.127167 
	C231.959305,101.819122 233.707443,97.554688 235.044754,92.029793 
	C237.771393,80.765007 240.854431,69.586494 244.225174,56.712864 
	C250.914200,63.736744 256.730896,69.844627 262.797882,76.202385 
z"/>
<path fill="#B3202E" opacity="1.000000" stroke="none" 
	d="
M310.081970,254.061707 
	C314.767365,245.916077 319.320984,238.115067 324.309845,229.568481 
	C328.968506,237.759567 333.150787,245.056610 337.279236,252.383957 
	C345.010468,266.105713 352.730255,279.834106 360.393677,293.593719 
	C361.179596,295.004852 362.027100,296.642853 362.040344,298.182526 
	C362.165131,312.649109 362.114471,327.117188 362.114471,342.628235 
	C354.215240,338.090485 346.971069,333.943665 339.742096,329.770538 
	C335.713623,327.444946 331.612946,325.223969 327.730103,322.673737 
	C325.126678,320.963806 323.106354,321.170593 320.470459,322.761383 
	C309.538757,329.358673 298.456543,335.706573 286.710907,342.565735 
	C286.532898,340.682861 286.297607,339.333252 286.294434,337.983124 
	C286.264526,325.334747 286.190033,312.685181 286.352722,300.038879 
	C286.381073,297.835205 287.052643,295.422821 288.115662,293.484436 
	C295.290222,280.401550 302.650238,267.420410 310.081970,254.061707 
z"/>
<path fill="#B4202E" opacity="1.000000" stroke="none" 
	d="
M311.291229,54.693130 
	C324.150482,62.651733 324.121307,62.603508 336.875397,54.884312 
	C343.988586,50.579166 351.208313,46.449261 358.406494,42.286179 
	C359.358582,41.735531 360.467682,41.456398 362.080414,40.826378 
	C362.080414,56.104630 362.483856,70.886536 361.810272,85.619194 
	C361.631256,89.534241 358.262390,93.363266 356.159058,97.120323 
	C346.332214,114.673164 336.443451,132.191360 326.542969,149.702835 
	C326.004791,150.654739 325.160889,151.433777 323.947327,152.920532 
	C320.076782,146.149384 316.463470,139.877380 312.896912,133.578888 
	C304.542786,118.825546 296.197540,104.067131 287.894287,89.285149 
	C287.176422,88.007164 286.340302,86.542992 286.329559,85.159325 
	C286.216156,70.555901 286.259338,55.951256 286.259338,40.255829 
	C295.020844,45.299458 303.003174,49.894554 311.291229,54.693130 
z"/>
<path fill="#B41F2D" opacity="1.000000" stroke="none" 
	d="
M412.986023,292.975525 
	C410.184357,303.635620 407.458771,313.891998 404.588776,324.691864 
	C403.294830,323.757660 402.322968,323.234131 401.573303,322.487518 
	C393.192505,314.140320 384.674927,305.919220 376.585938,297.296661 
	C373.874420,294.406281 371.411377,290.722137 370.315826,286.968536 
	C363.765869,264.526794 357.648560,241.958786 351.123108,218.487045 
	C356.099823,219.787933 360.541901,220.890854 364.951294,222.111771 
	C383.969971,227.377838 402.996887,232.616318 421.968201,238.048615 
	C424.230682,238.696457 426.503571,240.126297 428.204956,241.777573 
	C436.930786,250.246552 445.477386,258.900421 454.068604,267.507599 
	C455.198242,268.639343 456.224518,269.874237 457.790497,271.604950 
	C446.387726,274.692535 435.833984,278.276337 424.986938,280.240753 
	C417.318817,281.629517 413.600555,285.125885 412.986023,292.975525 
z"/>
<path fill="#B51E2C" opacity="1.000000" stroke="none" 
	d="
M223.194946,156.914398 
	C223.385971,156.913956 223.576981,156.913528 224.116379,156.987686 
	C224.464767,157.062271 224.607071,157.106049 224.607071,157.106049 
	C224.607071,157.106049 224.813644,156.989288 224.958481,157.423889 
	C225.867355,158.089066 226.631409,158.319641 227.395447,158.550217 
	C227.395447,158.550217 227.249969,158.784851 227.293945,159.028687 
	C229.907562,160.506699 232.477188,161.740891 235.046829,162.975082 
	C235.046829,162.975082 235.009903,163.006714 235.041199,163.340179 
	C240.276855,168.290359 246.137314,171.642059 253.036758,172.990372 
	C253.036758,172.990372 253.003616,173.008377 253.035858,173.354736 
	C255.171951,174.663254 257.275787,175.625427 259.379608,176.587616 
	C259.379608,176.587616 259.198639,176.753860 259.264984,177.017426 
	C263.769958,179.555191 268.208588,181.829391 272.647217,184.103592 
	C272.647217,184.103592 272.837982,184.000137 272.949280,184.433014 
	C274.634766,186.205215 276.013916,187.994095 277.827759,188.780899 
	C280.711304,190.031708 281.169830,191.874008 280.396027,194.514084 
	C280.396027,194.514084 280.097748,194.464478 279.871826,194.344299 
	C274.768280,197.167206 269.890656,200.110275 265.013062,203.053345 
	C265.013062,203.053360 265.056427,203.006454 264.750977,203.018677 
	C263.989410,203.417694 263.533264,203.804474 263.077118,204.191284 
	C263.077118,204.191284 263.075684,204.100021 262.730682,204.066025 
	C255.857437,207.393524 249.308273,210.715897 242.832703,214.175980 
	C242.171997,214.529007 241.952896,215.708527 241.528870,216.504517 
	C241.528870,216.504517 241.438721,216.498795 241.058594,216.397339 
	C238.103409,217.849213 235.528381,219.402573 232.953339,220.955933 
	C232.953339,220.955933 232.585800,221.060730 232.020203,221.050217 
	C230.659943,221.734589 229.865311,222.429489 229.070679,223.124390 
	C229.070663,223.124374 229.030121,223.033005 228.754730,223.050659 
	C228.002914,223.425354 227.526474,223.782364 227.050049,224.139374 
	C227.050034,224.139374 227.041016,224.055008 226.760498,224.062271 
	C226.018738,224.443970 225.557495,224.818420 225.096252,225.192871 
	C225.096237,225.192856 225.078964,225.098999 224.728485,225.084030 
	C208.903000,231.147156 193.010986,226.586563 177.028503,227.399567 
	C179.406403,221.554367 182.267975,216.599625 184.906052,211.528610 
	C187.312897,206.902100 189.477570,202.149567 191.748962,197.452576 
	C191.748962,197.452576 191.731308,197.171082 192.195587,197.051300 
	C197.834259,192.546814 196.065491,184.813141 189.018143,181.008728 
	C189.018143,181.008728 188.774490,180.769180 188.822281,180.212860 
	C187.217819,177.127243 185.565567,174.597961 183.913315,172.068665 
	C183.913315,172.068665 184.002533,172.008911 183.991821,171.667938 
	C181.711334,167.863983 179.441574,164.401016 177.171799,160.938034 
	C177.171799,160.938034 176.993729,160.829224 177.010239,160.361267 
	C177.026749,158.330185 177.026749,156.767059 177.026749,155.001450 
	C182.781311,155.001450 188.252792,154.786926 193.701477,155.048309 
	C203.539841,155.520279 213.364532,156.276749 223.194946,156.914398 
z"/>
<path fill="#B51E2C" opacity="1.000000" stroke="none" 
	d="
M391.989655,174.966141 
	C391.989655,174.966141 392.157410,174.741043 392.708374,174.818420 
	C393.751465,174.879532 394.341156,175.036194 394.721344,174.821640 
	C403.810913,169.692535 412.889923,164.544220 421.921906,159.314850 
	C422.514282,158.971863 422.715576,157.953430 423.098785,157.249176 
	C423.098785,157.249191 423.179260,157.073578 423.559937,157.102112 
	C424.327789,157.083755 424.715027,157.036850 425.482056,156.941330 
	C429.051575,156.262711 432.228577,155.178802 435.433350,155.089447 
	C444.364746,154.840424 453.307617,155.003967 462.245972,155.004486 
	C465.308167,155.004669 468.370331,155.004517 471.531494,155.004517 
	C471.335144,157.222137 471.206543,158.674332 471.077972,160.126526 
	C471.077972,160.126526 471.045227,160.045044 470.718567,160.088379 
	C469.986481,161.159729 469.581055,162.187759 469.175629,163.215790 
	C469.175629,163.215790 469.132843,163.093536 468.879517,163.245636 
	C468.427551,164.287064 468.228882,165.176392 468.030243,166.065704 
	C468.030243,166.065704 467.995392,166.014938 467.666931,166.057739 
	C466.919647,167.107574 466.500824,168.114609 466.082031,169.121643 
	C466.082001,169.121643 466.052948,169.046143 465.815430,169.193085 
	C465.410461,169.929642 465.243011,170.519241 465.075562,171.108841 
	C465.075562,171.108841 465.025482,171.040436 464.815063,171.172058 
	C464.496857,171.652542 464.389069,172.001419 464.281281,172.350296 
	C464.281281,172.350296 464.251984,172.194412 463.948853,172.258530 
	C462.866119,173.988571 462.086578,175.654495 461.307037,177.320419 
	C461.307037,177.320419 461.268799,177.189484 461.038788,177.219727 
	C460.523651,177.486343 460.238525,177.722717 459.696045,178.179382 
	C457.565979,181.732346 455.817017,185.142975 453.781433,188.372971 
	C452.153107,190.956696 452.305481,193.184601 453.869598,195.740265 
	C459.057159,204.216568 464.148743,212.753052 469.155609,221.337326 
	C470.248199,223.210541 470.837250,225.377472 471.896912,227.999847 
	C457.984741,227.999847 445.009674,228.098648 432.039368,227.895935 
	C430.036957,227.864639 427.935242,226.667130 426.084595,225.639481 
	C411.779633,217.696075 397.515808,209.678436 383.259918,201.647003 
	C377.854156,198.601532 372.502869,195.459412 366.117828,191.779953 
	C370.372894,189.136612 373.951660,187.221222 377.181854,184.834167 
	C381.964966,181.299561 389.046356,181.221542 391.989655,174.966141 
z"/>
<path fill="#68686A" opacity="1.000000" stroke="none" 
	d="
M200.409882,390.111572 
	C205.179321,390.104492 209.499908,390.104492 214.252426,390.104492 
	C214.252426,410.098022 214.252426,429.772583 214.252426,449.699463 
	C209.968262,449.699463 205.861267,449.699463 201.096817,449.699463 
	C201.096817,437.051514 201.096817,424.397491 201.096817,411.743500 
	C200.665665,411.656891 200.234512,411.570282 199.803375,411.483704 
	C197.063751,418.302216 194.316559,425.117737 191.587097,431.940308 
	C189.733597,436.573334 188.078552,441.297241 185.973022,445.811798 
	C185.214569,447.437988 183.400085,448.571625 182.067520,449.930054 
	C180.832306,448.641296 179.079208,447.565826 178.446228,446.029053 
	C174.459946,436.350677 170.738007,426.563660 166.886536,416.829254 
	C166.295486,415.335419 165.486374,413.927887 163.831558,412.586639 
	C163.831558,424.865479 163.831558,437.144318 163.831558,449.672363 
	C159.368347,449.672363 155.599686,449.672363 151.404907,449.672363 
	C151.404907,430.009491 151.404907,410.334808 151.404907,390.125763 
	C156.829025,390.125763 162.132309,389.904358 167.390259,390.294250 
	C168.581833,390.382599 170.081390,392.410919 170.648026,393.856415 
	C174.704407,404.204437 178.556183,414.632660 183.054688,426.580383 
	C185.787903,419.365875 188.026657,413.491577 190.238571,407.607178 
	C192.052032,402.782776 193.629959,397.853973 195.755524,393.172668 
	C196.378357,391.800964 198.517075,391.117523 200.409882,390.111572 
z"/>
<path fill="#676869" opacity="1.000000" stroke="none" 
	d="
M251.521606,389.541443 
	C263.402191,391.262939 268.461884,396.157471 269.471039,407.137848 
	C265.839172,407.137848 262.234528,407.357361 258.689850,406.993225 
	C257.727814,406.894409 256.765045,405.134460 256.113983,403.963745 
	C253.228928,398.775848 244.098709,397.554901 240.063797,401.888489 
	C237.198334,404.966034 238.252350,410.334045 242.451904,411.624603 
	C247.497620,413.175232 252.859283,413.670105 257.963928,415.062805 
	C267.212555,417.586060 270.684814,421.610870 271.562622,430.060455 
	C272.319977,437.350952 268.103668,444.876282 260.717316,448.153687 
	C250.447784,452.710388 240.304962,452.098816 230.845154,445.806183 
	C226.407776,442.854492 224.157394,437.452362 224.290146,431.338257 
	C228.387726,431.338257 232.494644,431.338257 236.576492,431.338257 
	C239.747253,439.673553 244.139053,442.198486 251.758331,440.243164 
	C255.561050,439.267273 257.955048,436.983063 258.257965,433.058197 
	C258.606049,428.548431 255.234238,427.055084 251.730865,426.179962 
	C247.067398,425.015137 242.206253,424.559296 237.627472,423.154999 
	C228.074402,420.225220 225.489761,416.102020 225.875305,405.668213 
	C226.150101,398.231110 231.303192,391.959351 239.208176,390.313202 
	C243.053528,389.512421 247.119019,389.768829 251.521606,389.541443 
z"/>
<path fill="#666768" opacity="1.000000" stroke="none" 
	d="
M67.813515,431.999084 
	C67.813354,418.020264 67.813354,404.541168 67.813354,390.592346 
	C72.264610,390.592346 76.470757,390.592346 81.160728,390.592346 
	C81.160728,398.196167 81.160728,405.946777 81.160728,413.697357 
	C81.519722,413.877991 81.878723,414.058655 82.237717,414.239288 
	C84.795715,411.177979 87.362808,408.124207 89.908073,405.052338 
	C91.286491,403.388763 92.880333,401.839386 93.942467,399.989075 
	C98.789413,391.545258 105.588219,387.635620 115.946335,390.862823 
	C108.513840,399.855347 100.991089,408.957092 93.211456,418.369629 
	C101.243988,428.623077 109.180710,438.754211 117.925194,449.916473 
	C112.202217,449.916473 107.630470,450.145966 103.108635,449.772034 
	C101.807701,449.664459 100.439583,447.982849 99.462952,446.739594 
	C94.328941,440.203949 89.317574,433.572113 84.242363,426.990051 
	C83.677338,426.257324 82.977722,425.628387 81.512527,424.071472 
	C81.512527,433.172058 81.512527,441.184906 81.512527,449.569397 
	C76.855476,449.569397 72.775078,449.569397 67.813675,449.569397 
	C67.813675,443.972198 67.813675,438.235474 67.813515,431.999084 
z"/>
<path fill="#696A6B" opacity="1.000000" stroke="none" 
	d="
M394.404114,433.275574 
	C398.976410,419.848511 403.504456,406.824646 407.806824,393.726715 
	C408.865479,390.503845 410.800171,389.901825 413.794769,390.047668 
	C416.653534,390.186981 419.102997,389.849487 420.326874,393.601166 
	C426.303528,411.921814 432.571259,430.147491 438.715607,448.413666 
	C438.807526,448.686981 438.637329,449.048523 438.575256,449.464203 
	C434.134766,450.827515 431.548218,450.030365 430.010345,444.801849 
	C426.375305,432.443329 426.059753,432.536163 412.981720,432.537048 
	C401.464935,432.537842 401.387604,432.514557 398.058441,443.581360 
	C396.760468,447.896088 395.413544,451.670959 388.981140,449.293030 
	C390.729095,444.130096 392.502869,438.890778 394.404114,433.275574 
M420.689087,416.808441 
	C418.518463,410.427582 416.347839,404.046753 413.804108,396.569183 
	C410.196869,407.326782 406.994507,416.876953 403.672943,426.782593 
	C410.853729,426.782593 417.134277,426.782593 423.777802,426.782593 
	C422.793182,423.545166 421.881256,420.546783 420.689087,416.808441 
z"/>
<path fill="#6A6A6B" opacity="1.000000" stroke="none" 
	d="
M579.031921,449.701630 
	C577.248657,449.701630 575.465332,449.701630 573.235474,449.701630 
	C573.235474,440.998413 573.235474,432.552826 573.235474,423.649048 
	C562.901672,423.649048 553.007141,423.649048 542.472778,423.649048 
	C542.472778,431.974976 542.472778,440.537170 542.472778,449.525757 
	C539.635986,449.525757 537.426086,449.525757 534.911194,449.525757 
	C534.911194,429.900604 534.911194,410.310364 534.911194,390.416962 
	C537.219299,390.416962 539.300659,390.416962 541.995605,390.416962 
	C541.995605,398.985535 541.995605,407.554260 541.995605,416.509460 
	C552.491638,416.509460 562.390320,416.509460 572.891113,416.509460 
	C572.891113,408.048706 572.891113,399.487518 572.891113,390.182404 
	C575.052917,390.182404 576.625427,390.182404 578.609375,390.735962 
	C579.024475,410.760193 579.028198,430.230927 579.031921,449.701630 
z"/>
<path fill="#68696A" opacity="1.000000" stroke="none" 
	d="
M364.993774,390.110107 
	C370.278442,390.110168 375.064728,390.110168 380.220734,390.110168 
	C380.328735,392.195312 380.410950,393.782410 380.526886,396.021088 
	C371.304749,396.021088 362.428741,396.021088 353.272247,396.021088 
	C353.272247,402.898346 353.272247,409.147095 353.272247,416.003052 
	C360.321533,416.003052 367.376221,416.003052 374.910919,416.003052 
	C375.029144,418.290710 375.117706,420.004456 375.236023,422.294495 
	C367.782013,422.294495 360.707642,422.294495 353.306610,422.294495 
	C353.306610,429.584198 353.306610,436.331482 353.306610,443.604706 
	C362.988007,443.604706 372.572784,443.604706 382.394867,443.604706 
	C382.394867,445.869965 382.394867,447.613342 382.394867,449.654053 
	C370.224548,449.654053 358.306244,449.654053 345.981262,449.654053 
	C345.981262,429.982635 345.981262,410.301178 345.981262,390.110016 
	C352.256836,390.110016 358.376129,390.110016 364.993774,390.110107 
z"/>
<path fill="#6C6C6E" opacity="1.000000" stroke="none" 
	d="
M329.033295,449.743958 
	C327.568085,449.743958 326.102875,449.743958 324.110626,449.743958 
	C324.110626,441.061066 324.110626,432.513916 324.110626,423.579407 
	C313.582550,423.579407 303.572205,423.579407 293.030334,423.579407 
	C293.030334,432.100647 293.030334,440.637634 293.030334,449.905121 
	C290.949463,449.905121 289.384369,449.905121 287.398926,449.362122 
	C286.955963,429.337524 286.933350,409.855927 286.910736,390.374359 
	C288.691620,390.284729 290.472504,390.195129 292.697723,390.083130 
	C292.697723,399.049103 292.697723,407.617737 292.697723,416.536133 
	C303.138489,416.536133 313.159576,416.536133 323.696533,416.536133 
	C323.696533,408.030029 323.696533,399.487762 323.696533,390.463257 
	C325.561432,390.341888 326.957520,390.251007 328.693298,390.795135 
	C329.033081,410.868073 329.033173,430.306000 329.033295,449.743958 
z"/>
<path fill="#68696B" opacity="1.000000" stroke="none" 
	d="
M139.708984,433.996338 
	C139.709167,439.440552 139.709167,444.385803 139.709167,449.631348 
	C134.951431,449.631348 130.729813,449.631348 126.150841,449.631348 
	C126.150841,429.979706 126.150841,410.459290 126.150841,390.523956 
	C130.459656,390.523956 134.799103,390.523956 139.708786,390.523956 
	C139.708786,405.009216 139.708786,419.253296 139.708984,433.996338 
z"/>
<path fill="#6F7072" opacity="1.000000" stroke="none" 
	d="
M505.050842,449.729187 
	C503.416412,449.814392 501.781982,449.899628 499.503357,450.018433 
	C499.503357,432.197876 499.503357,414.706848 499.503357,396.568787 
	C493.369995,396.568787 487.849701,396.568787 482.046112,396.568787 
	C481.906433,394.178955 481.803986,392.426025 481.683014,390.356323 
	C495.925934,390.356323 509.806671,390.356323 524.040466,390.356323 
	C524.040466,392.170654 524.040466,394.041901 524.040466,396.469727 
	C518.344360,396.469727 512.899292,396.469727 506.661346,396.877991 
	C505.574860,398.511902 505.028595,399.737000 505.025879,400.963257 
	C504.989655,417.218475 505.029785,433.473846 505.050842,449.729187 
z"/>
<path fill="#6D6E6F" opacity="1.000000" stroke="none" 
	d="
M455.605591,441.048767 
	C457.100067,441.891815 458.571533,443.411560 460.092896,443.463318 
	C467.530487,443.716339 474.981415,443.577911 482.676880,443.577911 
	C482.676880,445.783142 482.676880,447.534882 482.676880,449.625916 
	C471.272614,449.625916 460.067017,449.625916 448.499939,449.625916 
	C448.499939,429.988861 448.499939,410.464874 448.499939,390.160004 
	C450.056671,390.160004 451.624695,390.160004 453.607666,390.695251 
	C454.012756,407.322205 453.998047,423.413910 453.999817,439.505615 
	C454.000000,441.302399 454.043457,441.302399 455.605591,441.048767 
z"/>
<path fill="#9D3C47" opacity="1.000000" stroke="none" 
	d="
M391.627655,174.980652 
	C389.046356,181.221542 381.964966,181.299561 377.181854,184.834167 
	C373.951660,187.221222 370.372894,189.136612 366.117828,191.779953 
	C372.502869,195.459412 377.854156,198.601532 383.259918,201.647003 
	C397.515808,209.678436 411.779633,217.696075 426.084595,225.639481 
	C427.935242,226.667130 430.036957,227.864639 432.039368,227.895935 
	C445.009674,228.098648 457.984741,227.999847 471.896912,227.999847 
	C470.837250,225.377472 470.248199,223.210541 469.155609,221.337326 
	C464.148743,212.753052 459.057159,204.216568 453.869598,195.740265 
	C452.305481,193.184601 452.153107,190.956696 453.781433,188.372971 
	C455.817017,185.142975 457.565979,181.732346 459.958862,178.188873 
	C460.653961,177.985504 460.828827,177.992950 461.003723,178.000397 
	C459.210327,181.349472 457.580536,184.800720 455.572296,188.015610 
	C453.937439,190.632812 454.203461,192.638306 455.803589,195.261871 
	C462.110229,205.602203 468.132904,216.115921 474.234070,226.580994 
	C474.707794,227.393539 474.973541,228.327347 475.621552,229.896317 
	C465.473206,229.896317 455.857361,229.359177 446.327789,230.036255 
	C435.147278,230.830643 425.533112,228.149612 415.936005,222.189697 
	C399.306915,211.862930 381.943176,202.719376 364.894287,193.067688 
	C364.193268,192.670853 363.560638,192.153259 362.318695,191.291016 
	C372.247009,185.701813 381.756317,180.348480 391.627655,174.980652 
z"/>
<path fill="#9B3B46" opacity="1.000000" stroke="none" 
	d="
M191.464478,197.655060 
	C189.477570,202.149567 187.312897,206.902100 184.906052,211.528610 
	C182.267975,216.599625 179.406403,221.554367 177.028503,227.399567 
	C193.010986,226.586563 208.903000,231.147156 224.772919,225.101425 
	C221.758865,226.718155 218.397247,229.536789 214.932632,229.669662 
	C201.168152,230.197586 187.371490,229.886887 172.346848,229.886887 
	C178.888290,218.761902 185.034134,208.309708 191.464478,197.655060 
z"/>
<path fill="#59595A" opacity="1.000000" stroke="none" 
	d="
M579.428040,449.705872 
	C579.028198,430.230927 579.024475,410.760193 579.029541,390.849121 
	C579.606812,391.159973 580.667786,391.908630 580.671692,392.662720 
	C580.767029,411.155884 580.757690,429.649628 580.714294,448.143127 
	C580.713013,448.666138 580.133789,449.187775 579.428040,449.705872 
z"/>
<path fill="#8E2833" opacity="1.000000" stroke="none" 
	d="
M223.096848,156.567383 
	C213.364532,156.276749 203.539841,155.520279 193.701477,155.048309 
	C188.252792,154.786926 182.781311,155.001450 177.026749,155.001450 
	C177.026749,156.767059 177.026749,158.330185 177.054535,160.266800 
	C175.810867,158.564804 174.539398,156.489319 172.741562,153.554581 
	C179.055664,153.554581 184.492264,153.555069 189.928864,153.554489 
	C198.587997,153.553558 207.253906,153.363266 215.901901,153.673004 
	C218.294846,153.758698 220.634598,155.330460 223.096848,156.567383 
z"/>
<path fill="#912734" opacity="1.000000" stroke="none" 
	d="
M471.396423,159.983826 
	C471.206543,158.674332 471.335144,157.222137 471.531494,155.004517 
	C468.370331,155.004517 465.308167,155.004669 462.245972,155.004486 
	C453.307617,155.003967 444.364746,154.840424 435.433350,155.089447 
	C432.228577,155.178802 429.051575,156.262711 425.473816,156.746674 
	C425.085724,156.600647 425.065979,156.211472 425.065979,156.211472 
	C426.809570,155.324936 428.542755,153.693588 430.298401,153.669067 
	C445.045441,153.463211 459.796600,153.551865 475.656921,153.551865 
	C474.029755,156.147873 472.872314,157.994507 471.396423,159.983826 
z"/>
<path fill="#59595B" opacity="1.000000" stroke="none" 
	d="
M286.445068,390.555481 
	C286.933350,409.855927 286.955963,429.337524 286.971191,449.268494 
	C286.378723,448.956818 285.284729,448.196838 285.283020,447.434448 
	C285.241577,428.978607 285.312408,410.522430 285.395966,392.066528 
	C285.397980,391.622345 285.776520,391.179871 286.445068,390.555481 
z"/>
<path fill="#545457" opacity="1.000000" stroke="none" 
	d="
M505.439331,449.718506 
	C505.029785,433.473846 504.989655,417.218475 505.025879,400.963257 
	C505.028595,399.737000 505.574860,398.511902 506.215393,397.120728 
	C506.609344,413.661652 506.669708,430.368103 506.665771,447.074585 
	C506.665558,447.952423 506.119659,448.830109 505.439331,449.718506 
z"/>
<path fill="#58595A" opacity="1.000000" stroke="none" 
	d="
M455.679626,440.581818 
	C454.043457,441.302399 454.000000,441.302399 453.999817,439.505615 
	C453.998047,423.413910 454.012756,407.322205 454.033417,390.785095 
	C454.625885,391.776031 455.702454,393.208740 455.713043,394.649231 
	C455.824432,409.803741 455.765533,424.959473 455.679626,440.581818 
z"/>
<path fill="#59595B" opacity="1.000000" stroke="none" 
	d="
M329.433319,449.745789 
	C329.033173,430.306000 329.033081,410.868073 329.058350,390.917664 
	C329.649811,391.603302 330.700439,392.797913 330.709137,394.000061 
	C330.836853,411.566345 330.842316,429.133698 330.803650,446.700623 
	C330.801422,447.716980 330.171295,448.731964 329.433319,449.745789 
z"/>
<path fill="#9D3C47" opacity="1.000000" stroke="none" 
	d="
M422.751648,157.273376 
	C422.715576,157.953430 422.514282,158.971863 421.921906,159.314850 
	C412.889923,164.544220 403.810913,169.692535 394.721344,174.821640 
	C394.341156,175.036194 393.751465,174.879532 392.848602,174.824921 
	C402.426727,168.935211 412.415588,163.116394 422.751648,157.273376 
z"/>
<path fill="#9B3B46" opacity="1.000000" stroke="none" 
	d="
M241.855377,216.390198 
	C241.952896,215.708527 242.171997,214.529007 242.832703,214.175980 
	C249.308273,210.715897 255.857437,207.393524 262.772095,204.085175 
	C256.166321,208.184174 249.174103,212.230042 241.855377,216.390198 
z"/>
<path fill="#8E2833" opacity="1.000000" stroke="none" 
	d="
M252.848663,172.708496 
	C246.137314,171.642059 240.276855,168.290359 235.045670,163.316345 
	C240.899429,166.114899 246.779984,169.270752 252.848663,172.708496 
z"/>
<path fill="#9B3B46" opacity="1.000000" stroke="none" 
	d="
M189.041779,181.364288 
	C196.065491,184.813141 197.834259,192.546814 192.305984,196.963562 
	C196.716385,190.821518 191.646133,186.505905 189.041779,181.364288 
z"/>
<path fill="#8E2833" opacity="1.000000" stroke="none" 
	d="
M280.720825,194.426208 
	C281.169830,191.874008 280.711304,190.031708 277.827759,188.780899 
	C276.013916,187.994095 274.634766,186.205215 272.995850,184.531052 
	C277.195892,186.506393 281.460693,188.816559 286.186890,191.376633 
	C284.114594,192.570419 282.580109,193.454376 280.720825,194.426208 
z"/>
<path fill="#8E2833" opacity="1.000000" stroke="none" 
	d="
M265.371277,203.017853 
	C269.890656,200.110275 274.768280,197.167206 280.019226,194.358612 
	C275.504852,197.322830 270.617188,200.152603 265.371277,203.017853 
z"/>
<path fill="#8E2833" opacity="1.000000" stroke="none" 
	d="
M272.436951,183.862366 
	C268.208588,181.829391 263.769958,179.555191 259.326904,176.911316 
	C263.623901,178.901459 267.925262,181.261292 272.436951,183.862366 
z"/>
<path fill="#9B3B46" opacity="1.000000" stroke="none" 
	d="
M177.247375,161.275574 
	C179.441574,164.401016 181.711334,167.863983 183.952484,171.704895 
	C181.723572,168.592926 179.523270,165.103027 177.247375,161.275574 
z"/>
<path fill="#9B3B46" opacity="1.000000" stroke="none" 
	d="
M233.314331,221.037827 
	C235.528381,219.402573 238.103409,217.849213 241.043030,216.439728 
	C238.830170,218.095627 236.252747,219.607681 233.314331,221.037827 
z"/>
<path fill="#9B3B46" opacity="1.000000" stroke="none" 
	d="
M183.972000,172.417877 
	C185.565567,174.597961 187.217819,177.127243 188.821686,180.042007 
	C187.192444,177.874023 185.611557,175.320557 183.972000,172.417877 
z"/>
<path fill="#8E2833" opacity="1.000000" stroke="none" 
	d="
M234.847015,162.700592 
	C232.477188,161.740891 229.907562,160.506699 227.335480,158.897049 
	C229.771103,159.823090 232.209167,161.124603 234.847015,162.700592 
z"/>
<path fill="#8E2833" opacity="1.000000" stroke="none" 
	d="
M259.188019,176.322571 
	C257.275787,175.625427 255.171951,174.663254 253.035889,173.335892 
	C255.001236,173.999649 256.998840,175.028595 259.188019,176.322571 
z"/>
<path fill="#912734" opacity="1.000000" stroke="none" 
	d="
M461.600067,177.164795 
	C462.086578,175.654495 462.866119,173.988571 464.023193,172.286041 
	C463.564850,173.836029 462.728973,175.422607 461.600067,177.164795 
z"/>
<path fill="#9B3B46" opacity="1.000000" stroke="none" 
	d="
M229.413040,223.098557 
	C229.865311,222.429489 230.659943,221.734589 231.829254,221.058304 
	C231.387756,221.742188 230.571579,222.407455 229.413040,223.098557 
z"/>
<path fill="#912734" opacity="1.000000" stroke="none" 
	d="
M469.483154,163.094635 
	C469.581055,162.187759 469.986481,161.159729 470.761292,160.098419 
	C470.684021,161.034592 470.237366,162.004044 469.483154,163.094635 
z"/>
<path fill="#912734" opacity="1.000000" stroke="none" 
	d="
M466.354126,168.956085 
	C466.500824,168.114609 466.919647,167.107574 467.697632,166.059937 
	C467.579926,166.943054 467.103058,167.866776 466.354126,168.956085 
z"/>
<path fill="#8E2833" opacity="1.000000" stroke="none" 
	d="
M227.236664,158.297546 
	C226.631409,158.319641 225.867355,158.089066 225.013962,157.528763 
	C225.642380,157.480972 226.360138,157.762924 227.236664,158.297546 
z"/>
<path fill="#912734" opacity="1.000000" stroke="none" 
	d="
M468.297852,165.860229 
	C468.228882,165.176392 468.427551,164.287064 468.944275,163.246033 
	C469.030060,163.947800 468.797760,164.801270 468.297852,165.860229 
z"/>
<path fill="#9D3C47" opacity="1.000000" stroke="none" 
	d="
M424.811279,156.233475 
	C425.065979,156.211472 425.085724,156.600647 425.093994,156.795303 
	C424.715027,157.036850 424.327789,157.083755 423.649170,157.139069 
	C423.757355,156.850174 424.156952,156.552826 424.811279,156.233475 
z"/>
<path fill="#9B3B46" opacity="1.000000" stroke="none" 
	d="
M225.418457,225.174591 
	C225.557495,224.818420 226.018738,224.443970 226.799911,224.077957 
	C226.660110,224.443024 226.200378,224.799667 225.418457,225.174591 
z"/>
<path fill="#9B3B46" opacity="1.000000" stroke="none" 
	d="
M227.370346,224.120911 
	C227.526474,223.782364 228.002914,223.425354 228.798004,223.075684 
	C228.641312,223.422836 228.165970,223.762634 227.370346,224.120911 
z"/>
<path fill="#9B3B46" opacity="1.000000" stroke="none" 
	d="
M263.389069,204.185211 
	C263.533264,203.804474 263.989410,203.417694 264.768036,203.045700 
	C264.627350,203.433395 264.164185,203.806274 263.389069,204.185211 
z"/>
<path fill="#912734" opacity="1.000000" stroke="none" 
	d="
M465.322449,170.927414 
	C465.243011,170.519241 465.410461,169.929642 465.855530,169.187683 
	C465.945190,169.605530 465.757263,170.175766 465.322449,170.927414 
z"/>
<path fill="#8E2833" opacity="1.000000" stroke="none" 
	d="
M224.629578,157.006760 
	C224.607071,157.106049 224.464767,157.062271 224.391754,157.066864 
	C224.318741,157.071442 224.407028,156.825684 224.407028,156.825684 
	C224.407028,156.825684 224.652100,156.907471 224.629578,157.006760 
z"/>
<path fill="#912734" opacity="1.000000" stroke="none" 
	d="
M461.165649,177.851044 
	C460.828827,177.992950 460.653961,177.985504 460.216248,177.968567 
	C460.238525,177.722717 460.523651,177.486343 461.095734,177.257278 
	C461.382690,177.264572 461.327606,177.701706 461.165649,177.851044 
z"/>
<path fill="#912734" opacity="1.000000" stroke="none" 
	d="
M464.532898,172.221588 
	C464.389069,172.001419 464.496857,171.652542 464.857391,171.174561 
	C465.001587,171.394592 464.893036,171.743729 464.532898,172.221588 
z"/>
<path fill="#F0F0F1" opacity="1.000000" stroke="none" 
	d="
M420.829224,417.178406 
	C421.881256,420.546783 422.793182,423.545166 423.777802,426.782593 
	C417.134277,426.782593 410.853729,426.782593 403.672943,426.782593 
	C406.994507,416.876953 410.196869,407.326782 413.804108,396.569183 
	C416.347839,404.046753 418.518463,410.427582 420.829224,417.178406 
z"/>
</svg>